<?xml version="1.0" encoding="UTF-8"?>
<svg width="16px" height="20px" viewBox="0 0 16 20" version="1.1" xmlns="http://www.w3.org/2000/svg" xmlns:xlink="http://www.w3.org/1999/xlink">
    <!-- Generator: Sketch 42 (36781) - http://www.bohemiancoding.com/sketch -->
    <title>Shape</title>
    <desc>Created with Sketch.</desc>
    <defs></defs>
    <g id="Page-1" stroke="none" stroke-width="1" fill="none" fill-rule="evenodd">
        <g id="12_Settings_Checkout_3_1" transform="translate(-32.000000, -84.000000)" fill="#18B53A">
            <g id="Group-11" transform="translate(32.000000, 80.000000)">
                <path d="M7.39742438,18.0108796 L7.39742438,18.0108796 L7.39742438,18.0108796 C6.96645506,17.8583565 6.65768194,17.4467824 6.65768194,16.9629861 C6.65768194,16.3493287 7.15446522,15.851875 7.7672956,15.851875 C8.38012597,15.851875 8.87690925,16.3493287 8.87690925,16.9629861 C8.87690925,17.4467824 8.56813614,17.8583333 8.13716682,18.0108796 L8.13716682,19.9326157 C8.13716682,20.1275231 7.9715801,20.2963194 7.7672956,20.2963194 C7.56899839,20.2963194 7.39742438,20.1334722 7.39742438,19.9326157 L7.39742438,18.0108796 Z M6.65768194,18.4446065 L6.65768194,19.9247222 C6.65768194,20.5390509 7.1502117,21.0370833 7.7672956,21.0370833 C8.38012597,21.0370833 8.87690925,20.5399074 8.87690925,19.9247222 L8.87690925,18.4446065 C9.32609473,18.1067593 9.61665169,17.5688426 9.61665169,16.9629861 C9.61665169,15.9402315 8.78867185,15.1111343 7.7672956,15.1111343 C6.74591934,15.1111343 5.9179395,15.9402315 5.9179395,16.9629861 C5.9179395,17.5688426 6.20849646,18.1067593 6.65768194,18.4446065 L6.65768194,18.4446065 L6.65768194,18.4446065 Z M2.21922731,12.1481713 L2.21922731,9.555 C2.21922731,6.48645833 4.70318995,4 7.7672956,4 C10.8251828,4 13.3153639,6.48706019 13.3153639,9.555 L13.3153639,12.1481713 C14.5427122,12.1516898 15.5345912,13.1484028 15.5345912,14.3774074 L15.5345912,21.7707639 C15.5345912,23.0099074 14.5380888,24 13.308868,24 L2.22572318,24 C0.995392801,24 4.4408921e-15,23.0019444 4.4408921e-15,21.7707639 L4.4408921e-15,14.3774074 C4.4408921e-15,13.1404398 0.992988638,12.1516667 2.21922731,12.1481713 L2.21922731,12.1481713 L2.21922731,12.1481713 L2.21922731,12.1481713 Z M2.95896975,12.1481713 L3.69871219,12.1481713 L3.69871219,9.56229167 C3.69871219,7.30476852 5.52028171,5.48150463 7.7672956,5.48150463 C10.0097323,5.48150463 11.835879,7.30854167 11.835879,9.56229167 L11.835879,12.1481713 L12.5756214,12.1481713 L12.5756214,9.55071759 C12.5756214,6.89425926 10.417446,4.74076389 7.7672956,4.74076389 C5.11173583,4.74076389 2.95896975,6.8949537 2.95896975,9.55071759 L2.95896975,12.1481713 Z M4.43845463,12.1481713 L11.0961366,12.1481713 L11.0961366,9.5562037 C11.0961366,7.71490741 9.60201866,6.22224537 7.7672956,6.22224537 C5.92882759,6.22224537 4.43845463,7.7105787 4.43845463,9.5562037 L4.43845463,12.1481713 Z M2.21733172,12.888912 C1.40128023,12.888912 0.739742438,13.5534028 0.739742438,14.3747222 L0.739742438,21.7734491 C0.739742438,22.5940509 1.39880672,23.2592593 2.21733172,23.2592593 L13.3172826,23.2592593 C14.1333341,23.2592593 14.7948719,22.5947685 14.7948719,21.7734491 L14.7948719,14.3747222 C14.7948719,13.5541204 14.1358076,12.888912 13.3172826,12.888912 L2.21733172,12.888912 L2.21733172,12.888912 Z" id="Shape"></path>
            </g>
        </g>
    </g>
</svg>